<svg xmlns="http://www.w3.org/2000/svg" xmlns:xlink="http://www.w3.org/1999/xlink" width="801" zoomAndPan="magnify" viewBox="0 0 600.75 103.5" height="138" preserveAspectRatio="xMidYMid meet" version="1.0"><defs><clipPath id="8fd4466fc9"><path d="M 1.320312 0.21875 L 29.847656 0.21875 L 29.847656 45 L 1.320312 45 Z M 1.320312 0.21875 " clip-rule="nonzero"/></clipPath><clipPath id="910b2e205f"><path d="M 14.515625 0.21875 C 14.382812 0.21875 14.234375 0.242188 14.058594 0.292969 L 9.996094 1.21875 C 9.28125 1.453125 8.917969 1.6875 8.917969 2.386719 L 8.917969 18.117188 L 2.367188 18.117188 C 1.792969 18.117188 1.328125 18.574219 1.320312 19.148438 L 1.320312 22.148438 C 1.328125 22.722656 1.792969 23.183594 2.367188 23.183594 L 8.917969 23.183594 L 8.917969 45.140625 L 14.828125 45.140625 L 14.828125 23.183594 L 28.5625 23.183594 C 29.140625 23.183594 29.609375 22.714844 29.609375 22.136719 L 29.609375 19.28125 C 29.609375 18.640625 29.089844 18.117188 28.441406 18.117188 L 15.253906 18.117188 L 15.253906 1.21875 C 15.253906 0.574219 15.027344 0.21875 14.515625 0.21875 Z M 14.515625 0.21875 " clip-rule="nonzero"/></clipPath><clipPath id="acfe594a72"><path d="M 8.921875 52.316406 L 31 52.316406 L 31 81.269531 L 8.921875 81.269531 Z M 8.921875 52.316406 " clip-rule="nonzero"/></clipPath><clipPath id="a7360511d9"><path d="M 29.710938 75.535156 L 22.457031 75.535156 C 16.472656 75.535156 14.828125 74.25 14.828125 68.878906 L 14.828125 52.316406 L 8.921875 52.316406 L 8.921875 69.832031 C 8.921875 79.730469 14.644531 81.132812 22.9375 81.132812 C 23.871094 81.132812 27.726562 81.015625 29.945312 80.667969 C 30.648438 80.433594 30.878906 80.085938 30.878906 79.5 L 30.878906 76.589844 C 30.878906 75.890625 30.527344 75.542969 29.710938 75.542969 " clip-rule="nonzero"/></clipPath><clipPath id="805dcc4dc3"><path d="M 65.5 17.046875 L 93 17.046875 L 93 45.148438 L 65.5 45.148438 Z M 65.5 17.046875 " clip-rule="nonzero"/></clipPath><clipPath id="916755b829"><path d="M 71.410156 45.136719 L 71.410156 29.5 C 71.410156 23.339844 76.910156 22.761719 81.355469 22.761719 L 91.777344 22.761719 C 92.476562 22.875 92.945312 22.410156 92.945312 21.714844 L 92.945312 19.027344 C 92.945312 18.441406 92.714844 18.09375 92.019531 17.859375 C 89.820312 17.394531 83.453125 17.046875 80.441406 17.046875 C 76.734375 17.046875 65.5 17.160156 65.5 28.460938 L 65.5 45.136719 Z M 71.410156 45.136719 " clip-rule="nonzero"/></clipPath><clipPath id="13eb67f88d"><path d="M 65.5 52.316406 L 71.460938 52.316406 L 71.460938 81.269531 L 65.5 81.269531 Z M 65.5 52.316406 " clip-rule="nonzero"/></clipPath><clipPath id="b135725802"><path d="M 65.5 52.316406 L 65.5 80.054688 C 65.5 80.65625 65.96875 81.140625 66.546875 81.140625 L 70.363281 81.140625 C 70.941406 81.140625 71.410156 80.65625 71.410156 80.054688 L 71.410156 52.316406 Z M 65.5 52.316406 " clip-rule="nonzero"/></clipPath><clipPath id="5ea004743a"><path d="M 120.425781 52.316406 L 168.113281 52.316406 L 168.113281 81.269531 L 120.425781 81.269531 Z M 120.425781 52.316406 " clip-rule="nonzero"/></clipPath><clipPath id="5680dbb0ba"><path d="M 161.773438 52.316406 L 161.773438 74.382812 C 156.644531 75.578125 146.746094 75.816406 143.484375 75.816406 C 131.136719 75.816406 127.761719 72.351562 127.761719 62.796875 C 127.757812 57.101562 129.472656 53.761719 133.738281 52.316406 L 122.796875 52.316406 C 121.1875 54.894531 120.425781 58.296875 120.425781 62.644531 C 120.425781 76.503906 125.804688 81.128906 141.933594 81.128906 C 149.34375 81.128906 161.652344 80.535156 165.957031 79.234375 C 168.109375 78.640625 168.109375 77.457031 168.109375 76.507812 L 168.109375 52.316406 Z M 161.773438 52.316406 " clip-rule="nonzero"/></clipPath><clipPath id="21ec6cb091"><path d="M 127.148438 17.167969 L 168.449219 17.167969 L 168.449219 45.269531 L 127.148438 45.269531 Z M 127.148438 17.167969 " clip-rule="nonzero"/></clipPath><clipPath id="c6590dc815"><path d="M 128.195312 22.757812 L 142.414062 22.757812 C 153.527344 22.757812 161.773438 25.527344 161.773438 36.046875 L 161.773438 45.136719 L 168.109375 45.136719 L 168.109375 35.453125 C 168.109375 21.011719 157.160156 17.167969 142.800781 17.167969 C 138.800781 17.167969 133.972656 17.28125 128.089844 17.980469 C 127.269531 18.214844 127.148438 18.449219 127.148438 19.148438 L 127.148438 21.710938 C 127.148438 22.289062 127.617188 22.757812 128.195312 22.757812 " clip-rule="nonzero"/></clipPath><clipPath id="13f0c53968"><path d="M 209.066406 52.316406 L 215 52.316406 L 215 81.269531 L 209.066406 81.269531 Z M 209.066406 52.316406 " clip-rule="nonzero"/></clipPath><clipPath id="cc136016e9"><path d="M 209.066406 52.316406 L 209.066406 80.042969 C 209.066406 80.640625 209.535156 81.128906 210.113281 81.128906 L 213.925781 81.128906 C 214.507812 81.128906 214.976562 80.640625 214.976562 80.042969 L 214.976562 52.316406 Z M 209.066406 52.316406 " clip-rule="nonzero"/></clipPath><clipPath id="a260e419c6"><path d="M 247.910156 52.316406 L 254.296875 52.316406 L 254.296875 81.269531 L 247.910156 81.269531 Z M 247.910156 52.316406 " clip-rule="nonzero"/></clipPath><clipPath id="618b52636e"><path d="M 247.910156 52.316406 L 247.910156 80.042969 C 247.910156 80.640625 248.378906 81.128906 248.957031 81.128906 L 253.199219 81.128906 C 253.777344 81.128906 254.128906 80.882812 254.128906 80.042969 L 254.214844 52.316406 Z M 247.910156 52.316406 " clip-rule="nonzero"/></clipPath><clipPath id="19deecc5bf"><path d="M 209.066406 17.046875 L 292.515625 17.046875 L 292.515625 45.148438 L 209.066406 45.148438 Z M 209.066406 17.046875 " clip-rule="nonzero"/></clipPath><clipPath id="d9d83241bc"><path d="M 214.972656 45.136719 L 214.972656 22.757812 L 230.683594 22.757812 C 242.671875 22.757812 247.910156 23.335938 247.910156 41.472656 L 247.910156 45.136719 L 254.230469 45.136719 L 254.242188 41.394531 C 254.242188 33.238281 253.316406 27.878906 251.230469 24.269531 C 255.75 23.21875 262.25 22.636719 268.746094 22.636719 C 280.691406 22.636719 285.914062 24.382812 285.914062 42.675781 L 285.914062 45.140625 L 292.238281 45.140625 L 292.25 42.675781 C 292.25 19.960938 285.265625 17.046875 268.046875 17.046875 C 261.183594 17.046875 253.15625 18.328125 247.34375 20.191406 C 243.386719 17.980469 236.988281 17.046875 230.125 17.046875 C 223.488281 17.046875 217.210938 17.394531 210.347656 18.328125 C 209.414062 18.441406 209.066406 18.675781 209.066406 19.492188 L 209.066406 45.136719 Z M 214.972656 45.136719 " clip-rule="nonzero"/></clipPath><clipPath id="bffabfb156"><path d="M 285.914062 52.316406 L 292.300781 52.316406 L 292.300781 81.269531 L 285.914062 81.269531 Z M 285.914062 52.316406 " clip-rule="nonzero"/></clipPath><clipPath id="831aa03d80"><path d="M 285.914062 52.316406 L 285.914062 80.015625 C 285.914062 80.613281 286.382812 81.097656 286.960938 81.097656 L 291.082031 81.097656 C 291.78125 81.097656 292.128906 80.734375 292.128906 80.015625 L 292.214844 52.316406 Z M 285.914062 52.316406 " clip-rule="nonzero"/></clipPath><clipPath id="b821c9e7e1"><path d="M 333.203125 52.316406 L 383.445312 52.316406 L 383.445312 102.984375 L 333.203125 102.984375 Z M 333.203125 52.316406 " clip-rule="nonzero"/></clipPath><clipPath id="0c0cc5ef12"><path d="M 375.5625 52.316406 C 375.351562 70.933594 372.667969 75.292969 355.660156 75.292969 C 350.300781 75.292969 344.476562 75.179688 339.117188 74.710938 L 339.117188 52.316406 L 333.203125 52.316406 L 333.203125 101.933594 C 333.203125 102.515625 333.671875 102.984375 334.253906 102.984375 L 338.375 102.984375 C 339.015625 102.984375 339.539062 102.464844 339.539062 101.816406 L 339.539062 80.386719 C 345.753906 80.734375 350.890625 80.96875 356.507812 80.96875 C 378.96875 80.96875 383 75.449219 383.257812 52.320312 Z M 375.5625 52.316406 " clip-rule="nonzero"/></clipPath><clipPath id="79fcf25f24"><path d="M 333.203125 17.25 L 383.445312 17.25 L 383.445312 45 L 333.203125 45 Z M 333.203125 17.25 " clip-rule="nonzero"/></clipPath><clipPath id="92328ac12a"><path d="M 339.113281 45.136719 L 339.113281 22.757812 L 357.636719 22.757812 C 372.441406 22.757812 375.210938 27.28125 375.539062 45.136719 L 383.234375 45.136719 C 382.792969 22.90625 378.523438 17.25 358.539062 17.25 C 351.488281 17.25 346.230469 17.363281 334.640625 18.179688 C 333.5625 18.414062 333.203125 18.996094 333.203125 19.925781 L 333.203125 45.136719 Z M 339.113281 45.136719 " clip-rule="nonzero"/></clipPath><clipPath id="88019a5389"><path d="M 421.453125 0.226562 L 427.839844 0.226562 L 427.839844 45.785156 L 421.453125 45.785156 Z M 421.453125 0.226562 " clip-rule="nonzero"/></clipPath><clipPath id="070b21d5fd"><path d="M 427.789062 45.367188 L 427.789062 1.257812 C 427.789062 0.6875 427.265625 0.226562 426.625 0.226562 L 422.5 0.226562 C 421.921875 0.226562 421.453125 0.640625 421.453125 1.152344 L 421.453125 45.367188 Z M 427.789062 45.367188 " clip-rule="nonzero"/></clipPath><clipPath id="45cd92a2be"><path d="M 421.453125 52.5 L 427.839844 52.5 L 427.839844 81.453125 L 421.453125 81.453125 Z M 421.453125 52.5 " clip-rule="nonzero"/></clipPath><clipPath id="a185ec3e84"><path d="M 421.453125 52.5 L 421.453125 80.035156 C 421.453125 80.628906 421.921875 81.113281 422.5 81.113281 L 426.738281 81.113281 C 427.316406 81.113281 427.785156 80.628906 427.785156 80.035156 L 427.785156 52.5 Z M 421.453125 52.5 " clip-rule="nonzero"/></clipPath><clipPath id="f89981e5db"><path d="M 468.746094 18.113281 L 475.132812 18.113281 L 475.132812 45 L 468.746094 45 Z M 468.746094 18.113281 " clip-rule="nonzero"/></clipPath><clipPath id="3bc84f5035"><path d="M 475.082031 45.136719 L 475.082031 19.160156 C 475.082031 18.582031 474.609375 18.113281 474.03125 18.113281 L 469.792969 18.113281 C 469.214844 18.113281 468.746094 18.582031 468.746094 19.160156 L 468.746094 45.136719 Z M 475.082031 45.136719 " clip-rule="nonzero"/></clipPath><clipPath id="87199d2fde"><path d="M 468.746094 52.316406 L 518 52.316406 L 518 81.269531 L 468.746094 81.269531 Z M 468.746094 52.316406 " clip-rule="nonzero"/></clipPath><clipPath id="55138ab8ff"><path d="M 511.8125 52.316406 L 511.8125 75.597656 L 492.339844 75.597656 C 480.328125 75.597656 475.078125 73.84375 475.078125 55.589844 L 475.078125 52.316406 L 468.746094 52.316406 L 468.746094 55.511719 C 468.746094 78.167969 475.730469 81.089844 492.945312 81.089844 C 499.460938 81.089844 508.191406 81.089844 516.449219 79.921875 C 517.382812 79.6875 517.730469 79.453125 517.730469 78.757812 L 517.730469 52.316406 Z M 511.8125 52.316406 " clip-rule="nonzero"/></clipPath><clipPath id="f16ed2e1c6"><path d="M 511.816406 18.113281 L 517.777344 18.113281 L 517.777344 45 L 511.816406 45 Z M 511.816406 18.113281 " clip-rule="nonzero"/></clipPath><clipPath id="a61f729b2e"><path d="M 517.726562 45.136719 L 517.726562 19.160156 C 517.726562 18.582031 517.257812 18.113281 516.675781 18.113281 L 512.863281 18.113281 C 512.285156 18.113281 511.816406 18.582031 511.816406 19.160156 L 511.816406 45.136719 Z M 517.726562 45.136719 " clip-rule="nonzero"/></clipPath><clipPath id="34808b7f19"><path d="M 556.152344 52.316406 L 599 52.316406 L 599 81.269531 L 556.152344 81.269531 Z M 556.152344 52.316406 " clip-rule="nonzero"/></clipPath><clipPath id="03d73e68e7"><path d="M 577.757812 52.316406 L 585.378906 55.472656 C 590.953125 57.957031 592.464844 60.914062 592.464844 65.167969 L 592.464844 66.941406 C 592.464844 73.679688 588.632812 75.453125 576.554688 75.453125 L 557.316406 75.453125 C 556.671875 75.457031 556.152344 75.984375 556.152344 76.636719 L 556.152344 79.351562 C 556.152344 79.945312 556.265625 80.296875 557.078125 80.417969 C 559.984375 80.769531 570.910156 81.128906 576.601562 81.128906 C 592.726562 81.128906 598.773438 78.417969 598.796875 67 L 598.796875 65.402344 C 598.789062 60.285156 597.753906 55.847656 591.910156 52.316406 Z M 577.757812 52.316406 " clip-rule="nonzero"/></clipPath><clipPath id="fc8db9e7c2"><path d="M 556.574219 17.167969 L 596.597656 17.167969 L 596.597656 45.269531 L 556.574219 45.269531 Z M 556.574219 17.167969 " clip-rule="nonzero"/></clipPath><clipPath id="be6c36a0ad"><path d="M 562.058594 45.136719 L 575.320312 45.136719 L 570.808594 43.257812 C 564.1875 40.464844 562.910156 37.667969 562.910156 32.890625 L 562.910156 30.675781 C 562.910156 23.917969 569.878906 22.757812 574.640625 22.757812 L 595.21875 22.757812 C 595.796875 22.757812 596.265625 22.289062 596.265625 21.710938 L 596.265625 18.914062 C 596.265625 18.328125 596.03125 17.980469 595.332031 17.863281 C 590.191406 17.28125 580.039062 17.167969 576.417969 17.167969 C 568.363281 17.167969 556.574219 18.097656 556.574219 30.210938 L 556.574219 32.597656 C 556.574219 37.597656 557.605469 41.78125 562.058594 45.136719 " clip-rule="nonzero"/></clipPath></defs><g clip-path="url(#8fd4466fc9)"><g clip-path="url(#910b2e205f)"><path fill="#4db969" d="M 1.320312 0.21875 L 29.421875 0.21875 L 29.421875 44.925781 L 1.320312 44.925781 Z M 1.320312 0.21875 " fill-opacity="1" fill-rule="nonzero"/></g></g><g clip-path="url(#acfe594a72)"><g clip-path="url(#a7360511d9)"><path fill="#4db969" d="M 8.921875 52.316406 L 31.0625 52.316406 L 31.0625 81.269531 L 8.921875 81.269531 Z M 8.921875 52.316406 " fill-opacity="1" fill-rule="nonzero"/></g></g><g clip-path="url(#805dcc4dc3)"><g clip-path="url(#916755b829)"><path fill="#4db969" d="M 65.5 17.046875 L 92.75 17.046875 L 92.75 45.148438 L 65.5 45.148438 Z M 65.5 17.046875 " fill-opacity="1" fill-rule="nonzero"/></g></g><g clip-path="url(#13eb67f88d)"><g clip-path="url(#b135725802)"><path fill="#4db969" d="M 65.5 52.316406 L 71.460938 52.316406 L 71.460938 81.269531 L 65.5 81.269531 Z M 65.5 52.316406 " fill-opacity="1" fill-rule="nonzero"/></g></g><g clip-path="url(#5ea004743a)"><g clip-path="url(#5680dbb0ba)"><path fill="#4db969" d="M 120.425781 52.316406 L 168.113281 52.316406 L 168.113281 81.269531 L 120.425781 81.269531 Z M 120.425781 52.316406 " fill-opacity="1" fill-rule="nonzero"/></g></g><g clip-path="url(#21ec6cb091)"><g clip-path="url(#c6590dc815)"><path fill="#4db969" d="M 127.148438 17.167969 L 168.023438 17.167969 L 168.023438 45.269531 L 127.148438 45.269531 Z M 127.148438 17.167969 " fill-opacity="1" fill-rule="nonzero"/></g></g><g clip-path="url(#13f0c53968)"><g clip-path="url(#cc136016e9)"><path fill="#4db969" d="M 209.066406 52.316406 L 215.027344 52.316406 L 215.027344 81.269531 L 209.066406 81.269531 Z M 209.066406 52.316406 " fill-opacity="1" fill-rule="nonzero"/></g></g><g clip-path="url(#a260e419c6)"><g clip-path="url(#618b52636e)"><path fill="#4db969" d="M 247.910156 52.316406 L 254.296875 52.316406 L 254.296875 81.269531 L 247.910156 81.269531 Z M 247.910156 52.316406 " fill-opacity="1" fill-rule="nonzero"/></g></g><g clip-path="url(#19deecc5bf)"><g clip-path="url(#d9d83241bc)"><path fill="#4db969" d="M 209.066406 17.046875 L 292.089844 17.046875 L 292.089844 45.148438 L 209.066406 45.148438 Z M 209.066406 17.046875 " fill-opacity="1" fill-rule="nonzero"/></g></g><g clip-path="url(#bffabfb156)"><g clip-path="url(#831aa03d80)"><path fill="#4db969" d="M 285.914062 52.316406 L 292.300781 52.316406 L 292.300781 81.269531 L 285.914062 81.269531 Z M 285.914062 52.316406 " fill-opacity="1" fill-rule="nonzero"/></g></g><g clip-path="url(#b821c9e7e1)"><g clip-path="url(#0c0cc5ef12)"><path fill="#4db969" d="M 333.203125 52.316406 L 383.445312 52.316406 L 383.445312 102.984375 L 333.203125 102.984375 Z M 333.203125 52.316406 " fill-opacity="1" fill-rule="nonzero"/></g></g><g clip-path="url(#79fcf25f24)"><g clip-path="url(#92328ac12a)"><path fill="#4db969" d="M 333.203125 17.25 L 383.445312 17.25 L 383.445312 44.925781 L 333.203125 44.925781 Z M 333.203125 17.25 " fill-opacity="1" fill-rule="nonzero"/></g></g><g clip-path="url(#88019a5389)"><g clip-path="url(#070b21d5fd)"><path fill="#4db969" d="M 421.453125 0.226562 L 427.839844 0.226562 L 427.839844 45.359375 L 421.453125 45.359375 Z M 421.453125 0.226562 " fill-opacity="1" fill-rule="nonzero"/></g></g><g clip-path="url(#45cd92a2be)"><g clip-path="url(#a185ec3e84)"><path fill="#4db969" d="M 421.453125 52.5 L 427.839844 52.5 L 427.839844 81.027344 L 421.453125 81.027344 Z M 421.453125 52.5 " fill-opacity="1" fill-rule="nonzero"/></g></g><g clip-path="url(#f89981e5db)"><g clip-path="url(#3bc84f5035)"><path fill="#4db969" d="M 468.746094 18.113281 L 475.132812 18.113281 L 475.132812 44.9375 L 468.746094 44.9375 Z M 468.746094 18.113281 " fill-opacity="1" fill-rule="nonzero"/></g></g><g clip-path="url(#87199d2fde)"><g clip-path="url(#55138ab8ff)"><path fill="#4db969" d="M 468.746094 52.316406 L 517.710938 52.316406 L 517.710938 81.269531 L 468.746094 81.269531 Z M 468.746094 52.316406 " fill-opacity="1" fill-rule="nonzero"/></g></g><g clip-path="url(#f16ed2e1c6)"><g clip-path="url(#a61f729b2e)"><path fill="#4db969" d="M 511.816406 18.113281 L 517.777344 18.113281 L 517.777344 44.9375 L 511.816406 44.9375 Z M 511.816406 18.113281 " fill-opacity="1" fill-rule="nonzero"/></g></g><g clip-path="url(#34808b7f19)"><g clip-path="url(#03d73e68e7)"><path fill="#4db969" d="M 556.152344 52.316406 L 598.730469 52.316406 L 598.730469 81.269531 L 556.152344 81.269531 Z M 556.152344 52.316406 " fill-opacity="1" fill-rule="nonzero"/></g></g><g clip-path="url(#fc8db9e7c2)"><g clip-path="url(#be6c36a0ad)"><path fill="#4db969" d="M 556.574219 17.167969 L 596.171875 17.167969 L 596.171875 45.269531 L 556.574219 45.269531 Z M 556.574219 17.167969 " fill-opacity="1" fill-rule="nonzero"/></g></g></svg>